<svg xmlns="http://www.w3.org/2000/svg" enable-background="new 0 0 51 51" viewBox="0 0 51 51" id="analyzing-site"><path fill="#DEDEDD" d="M35.40609,44.86501v1.2776c0,0.40943-0.33191,0.74134-0.74134,0.74134h-20.8144
				c-0.40943,0-0.74134-0.33191-0.74134-0.74134v-1.2776c0-0.53118,0.4273-0.94685,0.94685-0.94685
				c0.84297,0,1.62815-0.27711,2.26321-0.77362c0.30023-0.23095,0.56578-0.50807,0.79674-0.83141
				c0.23095-0.34639,0.40411-0.72746,0.51962-1.15469l0.72746-2.78276H30.1522l0.73902,2.78276
				c0.10395,0.42723,0.28867,0.8083,0.51962,1.15469c0.66974,0.98153,1.81287,1.60503,3.04839,1.60503
				C34.97879,43.91816,35.40609,44.33383,35.40609,44.86501z"></path><path fill="#010101" d="M31.40507,42.31313H17.11004c0.23095-0.34639,0.40411-0.72746,0.51962-1.15469l0.72746-2.78276h11.78931
				l0.73902,2.78276C30.9894,41.58567,31.17411,41.96674,31.40507,42.31313z" opacity=".1"></path><path fill="#45C8F5" d="M45.00598,40.01951H3.50057c-1.10457,0-2-0.89543-2-2V9.14335c0-1.10457,0.89543-2,2-2h41.50541
				c1.10457,0,2,0.89543,2,2v28.87616C47.00598,39.12408,46.11055,40.01951,45.00598,40.01951z"></path><path fill="#010101" d="M47.00431,9.07882v29.0073c0,1.065-0.86166,1.9364-1.9364,1.9364H3.4353
				c-1.065,0-1.9364-0.8714-1.9364-1.9364v-0.65837h40.97424c1.07475,0,1.9364-0.87141,1.9364-1.9364V7.14242h0.65837
				C46.14265,7.14242,47.00431,8.01382,47.00431,9.07882z" opacity=".1"></path><rect width="38.467" height="25.832" x="5.023" y="10.667" fill="#DEEDF9"></rect><path fill="#010101" d="M43.48974,10.66668v25.83158H5.02316V33.3613h11.68618c12.79964,0,23.25619-10.04023,23.90487-22.69462
				H43.48974z" opacity=".1"></path><g><rect width="4.502" height="6.906" x="30.712" y="21.682" fill="#61C087" transform="rotate(-48.153 32.963 25.135)"></rect><path fill="#E6A45B" d="M48.11202,33.55482c1.67188,1.39219,1.85926,3.89096,0.40888,5.51047
					c-1.45064,1.61979-3.95996,1.71372-5.52204,0.19891l-10.1277-9.899c-0.31001-0.29866-0.32563-0.7853-0.04386-1.09992
					l3.23502-3.61225c0.28152-0.31434,0.76693-0.35228,1.09783-0.07694L48.11202,33.55482z"></path><path fill="#010101" d="M48.52243,39.06326c-1.45347,1.62706-3.95914,1.71379-5.52111,0.2061l-0.78102-0.77017
					c1.55112,0.92197,3.65545,0.57486,4.91375-0.82439c1.1715-1.31252,1.26909-3.22154,0.35797-4.63171l0.61823,0.50985
					C49.78073,34.95218,49.97597,37.44699,48.52243,39.06326z" opacity=".1"></path><path fill="#DEDEDD" d="M31.3204,23.67646c-4.31562,4.81886-11.74087,5.22793-16.55981,0.91231
					c-4.81886-4.3157-5.22869-11.75464-0.91306-16.5735c4.3157-4.81894,11.75464-5.22877,16.5735-0.91306
					C35.23996,11.41782,35.6361,18.85751,31.3204,23.67646z"></path><path fill="#FFF" d="M28.57512,21.21478c-2.95897,3.30401-8.05004,3.58449-11.35411,0.62552
					c-3.30402-2.95903-3.58501-8.05948-0.62604-11.3635c2.95903-3.30407,8.05948-3.58507,11.3635-0.62603
					C31.26254,12.80974,31.53415,17.91071,28.57512,21.21478z"></path><g><path fill="#2A3D66" d="M16.55423,22.58565c3.7075,3.31994,9.43369,3.01719,12.76611-0.7041
				c3.32434-3.71164,3.03023-9.43953-0.69482-12.77588c-3.70681-3.31932-9.44193-3.01783-12.77588,0.7041
				C12.52201,13.52559,12.83792,19.25704,16.55423,22.58565z M17.33988,11.14376c2.59304-2.8952,7.06284-3.13511,9.95166-0.54785
				c2.89353,2.59134,3.13336,7.05476,0.53857,9.95166c-2.59246,2.89561-7.05355,3.13469-9.94189,0.54785
				C14.99368,18.50265,14.74759,14.03878,17.33988,11.14376z"></path><path fill="#2A3D66" d="M48.74564,32.78145l-0.73975-0.60651V9.14327c0-1.6543-1.3457-3-3-3H30.82584
				c-4.75804-4.03834-11.69501-4.0344-16.46283,0H3.50052c-1.6543,0-3,1.3457-3,3v28.87646c0,1.6543,1.3457,3,3,3h13.12073
				c-0.17187,0.54622-0.41724,0.94659-0.92346,1.33691c-0.47021,0.36719-1.04004,0.56152-1.64746,0.56152
				c-1.07374,0-1.94727,0.87354-1.94727,1.94678v1.27783c0,0.95996,0.78125,1.74121,1.7417,1.74121h20.81446
				c0.95996,0,1.74121-0.78125,1.74121-1.74121v-1.27783c0-1.07324-0.87354-1.94678-1.94678-1.94678
				c-0.87891,0-1.73047-0.44775-2.21631-1.15918c-0.16211-0.24359-0.26923-0.48431-0.34503-0.73926h12.05097
				c1.9737,0.75251,4.05247,0.13103,5.32288-1.2876C51.0871,37.69855,50.87349,34.55315,48.74564,32.78145z M46.00589,9.14327
				v21.39191l-1.51611-1.24304V10.66671c0-0.55225-0.44775-1-1-1h-9.77502c-0.2926-0.52789-0.61395-1.03992-0.98175-1.52344
				h12.27289C45.55716,8.14327,46.00589,8.592,46.00589,9.14327z M14.09378,25.3337
				c4.19512,3.75727,10.50718,4.39992,15.48096,1.13153l2.11145,1.89081c-0.15283,0.60315,0.00763,1.26379,0.48572,1.72473
				l5.54303,5.41748H6.02298V11.66671h4.53491C8.95279,16.3057,10.10393,21.76047,14.09378,25.3337z M32.86374,26.72567
				l-1.67633-1.50092c0.30469-0.27936,0.59998-0.57074,0.87805-0.88129c0.28259-0.31555,0.54767-0.64264,0.79504-0.97992
				l1.67267,1.49811L32.86374,26.72567z M36.03666,23.52328l-2.11969-1.89862c1.54136-3.01587,1.85881-6.57171,0.69415-9.95795
				h7.87866v15.98566l-4.69092-3.84601C37.31107,23.40194,36.62229,23.32009,36.03666,23.52328z M29.75394,7.84737
				c4.40733,3.94669,4.77485,10.74883,0.82129,15.16211c-3.95067,4.41159-10.74663,4.77605-15.14746,0.83398
				c-4.41123-3.95041-4.78574-10.74959-0.83496-15.16113C18.53769,4.2772,25.34622,3.90023,29.75394,7.84737z M2.50052,38.01973
				V9.14327c0-0.55127,0.44873-1,1-1h8.95721c-0.37073,0.48657-0.70093,0.99567-0.99469,1.52344H5.02298c-0.55225,0-1,0.44775-1,1
				v25.83154c0,0.55225,0.44775,1,1,1h34.73834l1.55676,1.52148H3.50052C2.94925,39.01973,2.50052,38.571,2.50052,38.01973z
				 M30.57913,42.87667c0.87158,1.27832,2.32178,2.04883,3.82129,1.98828v1.01904h-20.3086l-0.0415-0.96582
				c1.05762,0,2.05322-0.34082,2.87354-0.98145c1.27138-0.97786,1.45365-1.94179,1.77521-2.91699h11.11499
				C29.91341,41.32897,29.97758,41.97434,30.57913,42.87667z M47.77591,38.39815c-1.03027,1.14941-2.97656,1.21924-4.07764,0.15088
				l-9.99219-9.76611l2.96729-3.31299l10.79883,8.85351C48.71104,35.35547,48.84871,37.19974,47.77591,38.39815z"></path></g></g></svg>